# ProBuilder 5.1.1
# https://unity3d.com/unity/features/worldbuilding/probuilder
# 1/24/2024 3:22:09 PM

mtllib ./StoneBrickWall.mtl
o StoneBrickWall

g StoneBrickWall
v -0.25 2 1.5
v -0.25 0 1.5
v 0.25 0 1.5
v 0.25 2 1.5
v 0.25 2 0
v -0.25 2 0
v -0.25 0 0
v 0.25 0 0

vt 0.25 2
vt 0.25 0
vt -0.25 0
vt -0.25 2
vt 0.25 1.5
vt -0.25 1.5
vt 1.5 2
vt 1.5 0
vt 0 0
vt 0 2
vt -1.5 0
vt -1.5 2

vn 0 0 -1
vn 0 -1 0
vn 0 0 1
vn -1 0 0
vn 1 0 0
vn 0 1 0

usemtl New_Material
f 4/4/1 3/3/1 2/2/1 1/1/1
f 1/6/2 6/3/2 5/2/2 4/5/2
f 1/4/3 2/3/3 3/2/3 4/1/3
f 6/10/4 7/9/4 2/8/4 1/7/4
f 5/4/1 8/3/1 7/2/1 6/1/1
f 4/12/5 3/11/5 8/9/5 5/10/5
f 6/2/6 1/5/6 4/6/6 5/3/6
f 2/6/2 7/3/2 8/2/2 3/5/2

